# xmcd
#
# Track frame offsets:
#	150
#	13645
#	29935
#	44707
#	59107
#	75432
#	87002
#	101480
#	114507
#	126667
#
# Disc length: 2050
#
# Revision: 1
# Processed by: cddbd v1.5.1PL0 Copyright (c) Steve Scherf et al.
# Submitted via: CDex 1.50beta9
# Normalized: r0:TDELIM( - )
#
DISCID=8b08000a
DTITLE=Various Artist - Hot Country Rock vol 1
DYEAR=1983
DGENRE=Country
TTITLE0=Merle Haggard - Big City
TTITLE1=Charlie Daniels Band - The Devil went Down to Georgia
TTITLE2=J Cash and W Jennings - there Ain't no Good Chain Gang
TTITLE3=Johnny Paycheck - I'm the only Hell My Mama ever Raised
TTITLE4=M Haggard and G Jones - CC Waterback
TTITLE5=Willie Nelson - On The Road Again
TTITLE6=David Allen Coe - The Ride
TTITLE7=George Jones - Tennessee Whiskey
TTITLE8=Lacy J Dalton - Wild Turkey
TTITLE9=M Murphey - Cosmic Cowboy Cosmic Beakdown
EXTD=YEAR: 1983
EXTT0=
EXTT1=
EXTT2=
EXTT3=
EXTT4=
EXTT5=
EXTT6=
EXTT7=
EXTT8=
EXTT9=
PLAYORDER=
